<svg width="64" height="56" viewBox="0 0 64 56" fill="none" xmlns="http://www.w3.org/2000/svg">
<rect width="64" height="56" rx="5" fill="#0079E9" fill-opacity="0.1"/>
<path fill-rule="evenodd" clip-rule="evenodd" d="M26.6506 16.75H37.3494C38.6532 16.75 39.3046 16.75 39.8311 16.9334C40.3275 17.1093 40.7767 17.3973 41.1437 17.7751C41.5107 18.1528 41.7857 18.6101 41.9472 19.1114C42.125 19.6536 42.125 20.3241 42.125 21.6662V37.4207C42.125 38.386 41.0169 38.899 40.316 38.2577C40.1194 38.0761 39.8615 37.9752 39.5938 37.9752C39.326 37.9752 39.0681 38.0761 38.8715 38.2577L38.3281 38.755C37.9836 39.0736 37.5317 39.2505 37.0625 39.2505C36.5933 39.2505 36.1414 39.0736 35.7969 38.755C35.4524 38.4364 35.0004 38.2595 34.5312 38.2595C34.0621 38.2595 33.6101 38.4364 33.2656 38.755C32.9211 39.0736 32.4692 39.2505 32 39.2505C31.5308 39.2505 31.0789 39.0736 30.7344 38.755C30.3899 38.4364 29.9379 38.2595 29.4688 38.2595C28.9996 38.2595 28.5476 38.4364 28.2031 38.755C27.8586 39.0736 27.4067 39.2505 26.9375 39.2505C26.4683 39.2505 26.0164 39.0736 25.6719 38.755L25.1285 38.2577C24.9319 38.0761 24.674 37.9752 24.4062 37.9752C24.1385 37.9752 23.8806 38.0761 23.684 38.2577C22.9831 38.899 21.875 38.386 21.875 37.4207V21.6662C21.875 20.3241 21.875 19.6525 22.0527 19.1125C22.3903 18.0854 23.1721 17.2799 24.1689 16.9334C24.6954 16.75 25.3467 16.75 26.6506 16.75ZM26.375 22.0938C26.1512 22.0938 25.9366 22.1826 25.7784 22.3409C25.6201 22.4991 25.5312 22.7137 25.5312 22.9375C25.5312 23.1613 25.6201 23.3759 25.7784 23.5341C25.9366 23.6924 26.1512 23.7812 26.375 23.7812H26.9375C27.1613 23.7812 27.3759 23.6924 27.5341 23.5341C27.6924 23.3759 27.7812 23.1613 27.7812 22.9375C27.7812 22.7137 27.6924 22.4991 27.5341 22.3409C27.3759 22.1826 27.1613 22.0938 26.9375 22.0938H26.375ZM30.3125 22.0938C30.0887 22.0938 29.8741 22.1826 29.7159 22.3409C29.5576 22.4991 29.4688 22.7137 29.4688 22.9375C29.4688 23.1613 29.5576 23.3759 29.7159 23.5341C29.8741 23.6924 30.0887 23.7812 30.3125 23.7812H37.625C37.8488 23.7812 38.0634 23.6924 38.2216 23.5341C38.3799 23.3759 38.4688 23.1613 38.4688 22.9375C38.4688 22.7137 38.3799 22.4991 38.2216 22.3409C38.0634 22.1826 37.8488 22.0938 37.625 22.0938H30.3125ZM26.375 26.0312C26.1512 26.0312 25.9366 26.1201 25.7784 26.2784C25.6201 26.4366 25.5312 26.6512 25.5312 26.875C25.5312 27.0988 25.6201 27.3134 25.7784 27.4716C25.9366 27.6299 26.1512 27.7188 26.375 27.7188H26.9375C27.1613 27.7188 27.3759 27.6299 27.5341 27.4716C27.6924 27.3134 27.7812 27.0988 27.7812 26.875C27.7812 26.6512 27.6924 26.4366 27.5341 26.2784C27.3759 26.1201 27.1613 26.0312 26.9375 26.0312H26.375ZM30.3125 26.0312C30.0887 26.0312 29.8741 26.1201 29.7159 26.2784C29.5576 26.4366 29.4688 26.6512 29.4688 26.875C29.4688 27.0988 29.5576 27.3134 29.7159 27.4716C29.8741 27.6299 30.0887 27.7188 30.3125 27.7188H37.625C37.8488 27.7188 38.0634 27.6299 38.2216 27.4716C38.3799 27.3134 38.4688 27.0988 38.4688 26.875C38.4688 26.6512 38.3799 26.4366 38.2216 26.2784C38.0634 26.1201 37.8488 26.0312 37.625 26.0312H30.3125ZM26.375 29.9688C26.1512 29.9688 25.9366 30.0576 25.7784 30.2159C25.6201 30.3741 25.5312 30.5887 25.5312 30.8125C25.5312 31.0363 25.6201 31.2509 25.7784 31.4091C25.9366 31.5674 26.1512 31.6562 26.375 31.6562H26.9375C27.1613 31.6562 27.3759 31.5674 27.5341 31.4091C27.6924 31.2509 27.7812 31.0363 27.7812 30.8125C27.7812 30.5887 27.6924 30.3741 27.5341 30.2159C27.3759 30.0576 27.1613 29.9688 26.9375 29.9688H26.375ZM30.3125 29.9688C30.0887 29.9688 29.8741 30.0576 29.7159 30.2159C29.5576 30.3741 29.4688 30.5887 29.4688 30.8125C29.4688 31.0363 29.5576 31.2509 29.7159 31.4091C29.8741 31.5674 30.0887 31.6562 30.3125 31.6562H37.625C37.8488 31.6562 38.0634 31.5674 38.2216 31.4091C38.3799 31.2509 38.4688 31.0363 38.4688 30.8125C38.4688 30.5887 38.3799 30.3741 38.2216 30.2159C38.0634 30.0576 37.8488 29.9688 37.625 29.9688H30.3125Z" fill="#0079E9"/>
</svg>
