<svg width="24" height="24" viewBox="0 0 24 24" fill="none" xmlns="http://www.w3.org/2000/svg">
<path d="M10.5 6.75C10.5 6.55109 10.579 6.36032 10.7197 6.21967C10.8603 6.07902 11.0511 6 11.25 6C11.4489 6 11.6397 6.07902 11.7803 6.21967C11.921 6.36032 12 6.55109 12 6.75V12H15C15.1989 12 15.3897 12.079 15.5303 12.2197C15.671 12.3603 15.75 12.5511 15.75 12.75C15.75 12.9489 15.671 13.1397 15.5303 13.2803C15.3897 13.421 15.1989 13.5 15 13.5H11.25C11.0511 13.5 10.8603 13.421 10.7197 13.2803C10.579 13.1397 10.5 12.9489 10.5 12.75V6.75ZM12 22.5C17.799 22.5 22.5 17.799 22.5 12C22.5 6.201 17.799 1.5 12 1.5C6.201 1.5 1.5 6.201 1.5 12C1.5 17.799 6.201 22.5 12 22.5ZM12 21C7.02975 21 3 16.9703 3 12C3 7.02975 7.02975 3 12 3C16.9703 3 21 7.02975 21 12C21 16.9703 16.9703 21 12 21Z" fill="#018DC9"/>
</svg>
