<svg width="130" height="71" viewBox="0 0 130 71" fill="none" xmlns="http://www.w3.org/2000/svg">
<path d="M24.7345 10.2785H30.5544V48H24.7345V44.1201C22.5431 47.1737 19.3996 48.7005 15.3041 48.7005C11.6038 48.7005 8.44242 47.3354 5.81988 44.6051C3.19734 41.8388 1.88607 38.4798 1.88607 34.5281C1.88607 30.5404 3.19734 27.1813 5.81988 24.451C8.44242 21.7207 11.6038 20.3556 15.3041 20.3556C19.3996 20.3556 22.5431 21.8644 24.7345 24.8821V10.2785ZM10.1309 40.7251C11.7475 42.3418 13.7773 43.1501 16.2202 43.1501C18.6631 43.1501 20.6929 42.3418 22.3096 40.7251C23.9262 39.0726 24.7345 37.0069 24.7345 34.5281C24.7345 32.0492 23.9262 30.0015 22.3096 28.3848C20.6929 26.7323 18.6631 25.906 16.2202 25.906C13.7773 25.906 11.7475 26.7323 10.1309 28.3848C8.51427 30.0015 7.70596 32.0492 7.70596 34.5281C7.70596 37.0069 8.51427 39.0726 10.1309 40.7251ZM42.8345 15.9368C42.116 16.6553 41.2538 17.0145 40.2479 17.0145C39.242 17.0145 38.3618 16.6553 37.6074 15.9368C36.8889 15.1823 36.5296 14.3022 36.5296 13.2963C36.5296 12.2903 36.8889 11.4281 37.6074 10.7096C38.3259 9.95521 39.206 9.578 40.2479 9.578C41.2897 9.578 42.1699 9.95521 42.8884 10.7096C43.6069 11.4281 43.9661 12.2903 43.9661 13.2963C43.9661 14.3022 43.5889 15.1823 42.8345 15.9368ZM37.3379 48V21.0561H43.1578V48H37.3379ZM64.95 26.6604H58.2679V39.5935C58.2679 40.7072 58.5193 41.5155 59.0223 42.0185C59.5252 42.4855 60.2617 42.7549 61.2317 42.8268C62.2376 42.8627 63.477 42.8447 64.95 42.7729V48C60.4952 48.5389 57.2979 48.1617 55.3579 46.8684C53.418 45.5391 52.448 43.1142 52.448 39.5935V26.6604H47.4903V21.0561H52.448V15.2362L58.2679 13.5118V21.0561H64.95V26.6604Z" fill="white"/>
<path d="M112.056 28.4926C112.056 29.3908 112.541 30.1093 113.511 30.6481C114.517 31.1511 115.72 31.6002 117.121 31.9953C118.558 32.3546 119.995 32.7857 121.432 33.2886C122.869 33.7916 124.073 34.6538 125.043 35.8753C126.048 37.0608 126.551 38.5696 126.551 40.4018C126.551 42.9884 125.546 45.0182 123.534 46.4911C121.558 47.9641 119.061 48.7005 116.043 48.7005C113.385 48.7005 111.104 48.1437 109.2 47.03C107.296 45.9163 105.912 44.3716 105.05 42.3957L110.062 39.4857C110.996 42.0723 112.99 43.3657 116.043 43.3657C119.097 43.3657 120.624 42.3597 120.624 40.3479C120.624 39.4857 120.121 38.7852 119.115 38.2463C118.145 37.7074 116.941 37.2584 115.504 36.8991C114.103 36.5039 112.684 36.0549 111.247 35.5519C109.81 35.049 108.589 34.2227 107.583 33.0731C106.613 31.8876 106.128 30.3967 106.128 28.6004C106.128 26.1216 107.062 24.1277 108.93 22.6189C110.834 21.11 113.187 20.3556 115.989 20.3556C118.217 20.3556 120.193 20.8585 121.917 21.8644C123.677 22.8344 125.025 24.1996 125.959 25.9599L121.055 28.7082C120.121 26.6604 118.432 25.6366 115.989 25.6366C114.876 25.6366 113.942 25.888 113.187 26.391C112.433 26.858 112.056 27.5586 112.056 28.4926Z" fill="white"/>
<g filter="url(#filter0_d_533_11533)">
<path d="M69.4287 47.2081L72.0834 18.7756C72.2208 17.3043 73.4556 16.1794 74.9333 16.1794H76.2031C77.0826 16.1794 77.7956 16.8924 77.7956 17.7719C77.7956 18.5313 77.3145 19.3905 77.0379 20.0977C76.4365 21.6357 76.4437 24.3639 80.1887 24.3639C83.9969 24.3639 83.7025 21.3573 82.9154 19.6728C82.7269 19.2695 82.5817 18.84 82.5817 18.3948C82.5817 17.1713 83.5736 16.1794 84.7971 16.1794H87.7987C88.5991 16.1794 89.248 16.8283 89.248 17.6288C89.248 18.4292 88.6697 19.4396 88.4851 20.2184C88.1083 21.808 88.5585 24.4841 91.812 24.3639C95.2314 24.2375 95.0156 21.4741 94.3324 19.8439C94.1637 19.4415 94.0341 19.0181 94.0341 18.5818C94.0341 17.255 95.1096 16.1794 96.4364 16.1794H97.0895C98.6555 16.1794 99.9679 17.3634 100.129 18.9212L103.044 47.1749C103.253 49.2011 101.664 50.9632 99.6268 50.9632H72.8496C70.8259 50.9632 69.2406 49.223 69.4287 47.2081Z" fill="#0079E9"/>
<path d="M80.0177 22.8293C78.5398 22.724 78.431 21.6581 78.6939 20.7533C78.8941 20.0643 79.1631 19.3743 79.1631 18.6569V11.5757C79.391 9.30224 80.9749 4.72123 85.4875 4.58482C89.7053 4.45732 91.7629 7.59704 92.3859 9.49289C92.4676 9.74153 92.498 10.0027 92.5025 10.2644L92.6532 18.9814C92.662 19.494 92.8049 19.9919 92.9624 20.4798C93.3129 21.5663 93.2685 22.8293 91.4701 22.8293C89.7729 22.8293 89.6678 21.6927 89.9772 20.7224C90.1895 20.0565 90.4449 19.3872 90.4431 18.6882C90.4355 15.6335 90.3949 10.8385 90.2736 9.8706C90.1027 8.50653 88.2224 6.97195 85.4875 6.80144C83.6149 6.68469 82.2766 8.39149 81.6439 9.6342C81.4539 10.0076 81.3852 10.4264 81.3852 10.8453V17.8049C81.3852 19.1075 82.0777 20.7432 81.62 21.9628C81.4219 22.4906 80.9566 22.8962 80.0177 22.8293Z" fill="#0079E9"/>
</g>
<g filter="url(#filter1_d_533_11533)">
<path d="M92.7042 41.8115C90.8304 43.661 88.5428 44.5858 85.8416 44.5858C83.1403 44.5858 80.8527 43.661 78.9789 41.8115C77.1294 39.9376 76.2046 37.6501 76.2046 34.9488C76.2046 32.2475 77.1294 29.9722 78.9789 28.1226C80.8527 26.2488 83.1403 25.3119 85.8416 25.3119C88.5428 25.3119 90.8304 26.2488 92.7042 28.1226C94.5781 29.9722 95.515 32.2475 95.515 34.9488C95.515 37.6501 94.5781 39.9376 92.7042 41.8115ZM82.3007 38.5627C83.2498 39.5118 84.4301 39.9863 85.8416 39.9863C87.253 39.9863 88.4333 39.5118 89.3824 38.5627C90.3315 37.6136 90.8061 36.409 90.8061 34.9488C90.8061 33.4887 90.3315 32.2841 89.3824 31.335C88.4333 30.3859 87.253 29.9113 85.8416 29.9113C84.4301 29.9113 83.2498 30.3859 82.3007 31.335C81.376 32.2841 80.9136 33.4887 80.9136 34.9488C80.9136 36.409 81.376 37.6136 82.3007 38.5627Z" fill="white"/>
</g>
<defs>
<filter id="filter0_d_533_11533" x="67.1236" y="4.58105" width="38.2294" height="50.963" filterUnits="userSpaceOnUse" color-interpolation-filters="sRGB">
<feFlood flood-opacity="0" result="BackgroundImageFix"/>
<feColorMatrix in="SourceAlpha" type="matrix" values="0 0 0 0 0 0 0 0 0 0 0 0 0 0 0 0 0 0 127 0" result="hardAlpha"/>
<feOffset dy="2.29048"/>
<feGaussianBlur stdDeviation="1.14524"/>
<feComposite in2="hardAlpha" operator="out"/>
<feColorMatrix type="matrix" values="0 0 0 0 0 0 0 0 0 0 0 0 0 0 0 0 0 0 0.25 0"/>
<feBlend mode="normal" in2="BackgroundImageFix" result="effect1_dropShadow_533_11533"/>
<feBlend mode="normal" in="SourceGraphic" in2="effect1_dropShadow_533_11533" result="shape"/>
</filter>
<filter id="filter1_d_533_11533" x="73.9126" y="25.3118" width="23.8935" height="23.8549" filterUnits="userSpaceOnUse" color-interpolation-filters="sRGB">
<feFlood flood-opacity="0" result="BackgroundImageFix"/>
<feColorMatrix in="SourceAlpha" type="matrix" values="0 0 0 0 0 0 0 0 0 0 0 0 0 0 0 0 0 0 127 0" result="hardAlpha"/>
<feOffset dy="2.29048"/>
<feGaussianBlur stdDeviation="1.14524"/>
<feComposite in2="hardAlpha" operator="out"/>
<feColorMatrix type="matrix" values="0 0 0 0 0 0 0 0 0 0 0 0 0 0 0 0 0 0 0.25 0"/>
<feBlend mode="normal" in2="BackgroundImageFix" result="effect1_dropShadow_533_11533"/>
<feBlend mode="normal" in="SourceGraphic" in2="effect1_dropShadow_533_11533" result="shape"/>
</filter>
</defs>
</svg>
