<svg width="40" height="40" viewBox="0 0 40 40" fill="none" xmlns="http://www.w3.org/2000/svg">
<rect width="40" height="40" rx="5" fill="white"/>
<path d="M20 15.1178C19.0352 15.1178 18.0922 15.4036 17.29 15.9391C16.4878 16.4746 15.8626 17.2357 15.4934 18.1261C15.1242 19.0166 15.0276 19.9965 15.2158 20.9418C15.404 21.8872 15.8686 22.7555 16.5508 23.437C17.233 24.1186 18.1022 24.5827 19.0484 24.7708C19.9946 24.9588 20.9754 24.8623 21.8667 24.4934C22.758 24.1246 23.5198 23.5 24.0558 22.6986C24.5918 21.8971 24.8779 20.9549 24.8779 19.9911C24.8795 19.3507 24.7544 18.7163 24.5098 18.1243C24.2652 17.5323 23.906 16.9945 23.4527 16.5416C22.9994 16.0888 22.4611 15.7299 21.8685 15.4855C21.276 15.2412 20.641 15.1162 20 15.1178ZM20 23.1647C19.3717 23.1647 18.7576 22.9786 18.2352 22.6298C17.7128 22.2811 17.3056 21.7855 17.0652 21.2056C16.8248 20.6257 16.7619 19.9876 16.8845 19.3719C17.007 18.7563 17.3096 18.1908 17.7538 17.747C18.1981 17.3032 18.7641 17.0009 19.3803 16.8785C19.9965 16.756 20.6352 16.8189 21.2156 17.0591C21.7961 17.2993 22.2922 17.706 22.6412 18.2279C22.9903 18.7498 23.1766 19.3634 23.1766 19.9911C23.1766 20.8328 22.8419 21.64 22.2462 22.2352C21.6505 22.8303 20.8425 23.1647 20 23.1647ZM26.2223 14.9157C26.2223 15.1508 26.1525 15.3806 26.0218 15.5761C25.8911 15.7715 25.7052 15.9239 25.4879 16.0138C25.2705 16.1038 25.0312 16.1273 24.8005 16.0815C24.5697 16.0356 24.3577 15.9224 24.1913 15.7562C24.0249 15.5899 23.9116 15.3782 23.8657 15.1476C23.8198 14.917 23.8433 14.678 23.9334 14.4608C24.0234 14.2436 24.1759 14.058 24.3716 13.9274C24.5672 13.7968 24.7973 13.7271 25.0326 13.7271C25.3481 13.7271 25.6507 13.8523 25.8738 14.0752C26.0969 14.2981 26.2223 14.6005 26.2223 14.9157ZM29.4465 16.1043C29.4811 14.6267 28.9294 13.1953 27.9117 12.1225C26.8436 11.0927 25.4102 10.5285 23.9261 10.5535C22.3795 10.4822 17.6205 10.4822 16.0739 10.5535C14.5953 10.5215 13.1635 11.0723 12.0883 12.0868C11.0706 13.1596 10.5189 14.591 10.5535 16.0687C10.4822 17.6139 10.4822 22.3683 10.5535 23.9135C10.5189 25.3912 11.0706 26.8225 12.0883 27.8954C13.1635 28.9098 14.5953 29.4607 16.0739 29.4287C17.6443 29.5238 22.3557 29.5238 23.9261 29.4287C25.4052 29.4633 26.8379 28.9121 27.9117 27.8954C28.9294 26.8225 29.4811 25.3912 29.4465 23.9135C29.5178 22.3683 29.5178 17.6139 29.4465 16.0687V16.1043ZM27.4239 25.6132C27.2624 26.022 27.0185 26.3933 26.7075 26.7041C26.3964 27.0149 26.0247 27.2585 25.6155 27.4199C23.7686 27.793 21.8804 27.9209 20 27.8003C18.1235 27.9211 16.2393 27.7932 14.3964 27.4199C13.9872 27.2585 13.6155 27.0149 13.3044 26.7041C12.9934 26.3933 12.7495 26.022 12.588 25.6132C12.0883 24.3533 12.1954 21.3818 12.1954 20.003C12.1954 18.6242 12.0883 15.6408 12.588 14.3927C12.745 13.9799 12.9871 13.6046 13.2986 13.2913C13.6102 12.978 13.9842 12.7337 14.3964 12.5741C16.2393 12.2009 18.1235 12.073 20 12.1938C21.8804 12.0732 23.7686 12.2011 25.6155 12.5741C26.0247 12.7355 26.3964 12.9791 26.7075 13.2899C27.0185 13.6007 27.2624 13.972 27.4239 14.3808C27.9236 15.6408 27.8046 18.6123 27.8046 19.9911C27.8046 21.3699 27.9236 24.3533 27.4239 25.6013V25.6132Z" fill="#1A2938"/>
</svg>
