<svg width="64" height="56" viewBox="0 0 64 56" fill="none" xmlns="http://www.w3.org/2000/svg">
<rect width="64" height="56" rx="5" fill="#0079E9" fill-opacity="0.1"/>
<g clip-path="url(#clip0_533_11493)">
<path fill-rule="evenodd" clip-rule="evenodd" d="M31.181 16.5608C31.6414 16.3885 32.1444 16.3661 32.6183 16.4966L32.819 16.5608L40.9857 19.6233C41.3997 19.7786 41.7612 20.0483 42.0278 20.4011C42.2945 20.7539 42.4554 21.1752 42.4918 21.616L42.5 21.8085V28.0653C42.5 29.9558 41.9895 31.8112 41.0225 33.4357C40.0556 35.0602 38.668 36.3935 37.0062 37.2948L36.6958 37.457L32.7828 39.4135C32.5674 39.521 32.332 39.583 32.0915 39.5954C31.851 39.6079 31.6106 39.5706 31.3852 39.4858L31.2172 39.4135L27.3042 37.457C25.6132 36.6115 24.1819 35.3251 23.1613 33.7337C22.1408 32.1423 21.5688 30.3048 21.5058 28.4153L21.5 28.0653V21.8085C21.5 21.3664 21.6256 20.9335 21.8621 20.5601C22.0985 20.1867 22.4362 19.8881 22.8358 19.6991L23.0143 19.6233L31.181 16.5608ZM36.0052 24.0671L30.6408 29.4315L28.5782 27.3688C28.3593 27.15 28.0624 27.0272 27.7529 27.0273C27.4434 27.0274 27.1467 27.1505 26.9279 27.3694C26.7092 27.5883 26.5863 27.8851 26.5864 28.1946C26.5865 28.5041 26.7096 28.8009 26.9285 29.0196L29.7332 31.8243C29.8523 31.9435 29.9938 32.0381 30.1496 32.1026C30.3053 32.1672 30.4723 32.2004 30.6408 32.2004C30.8094 32.2004 30.9763 32.1672 31.1321 32.1026C31.2878 32.0381 31.4293 31.9435 31.5485 31.8243L37.6548 25.7168C37.7663 25.6092 37.8551 25.4804 37.9163 25.3381C37.9774 25.1958 38.0096 25.0427 38.011 24.8878C38.0123 24.7329 37.9828 24.5792 37.9241 24.4359C37.8655 24.2925 37.7788 24.1622 37.6693 24.0527C37.5598 23.9431 37.4295 23.8565 37.2861 23.7978C37.1427 23.7392 36.9891 23.7097 36.8342 23.711C36.6793 23.7124 36.5262 23.7445 36.3839 23.8057C36.2415 23.8668 36.1128 23.9557 36.0052 24.0671Z" fill="#0079E9"/>
</g>
<defs>
<clipPath id="clip0_533_11493">
<rect width="28" height="28" fill="white" transform="translate(18 14)"/>
</clipPath>
</defs>
</svg>
