<svg width="64" height="56" viewBox="0 0 64 56" fill="none" xmlns="http://www.w3.org/2000/svg">
<rect width="64" height="56" rx="5" fill="#0079E9" fill-opacity="0.1"/>
<path d="M39.2813 30.9898C39.6605 30.069 39.8663 29.0832 39.8663 27.9998C39.8663 27.2198 39.7471 26.4723 39.5413 25.779C38.8371 25.9415 38.1005 26.0282 37.3313 26.0282C35.7561 26.0299 34.2036 25.6528 32.8046 24.9288C31.4057 24.2048 30.2013 23.1551 29.293 21.8682C28.3213 24.2192 26.4884 26.1103 24.1688 27.1548C24.1255 27.4257 24.1255 27.7182 24.1255 27.9998C24.1255 29.0341 24.3292 30.0583 24.725 31.0138C25.1208 31.9693 25.7009 32.8376 26.4322 33.5689C27.9093 35.0459 29.9125 35.8757 32.0013 35.8757C33.1388 35.8757 34.233 35.6265 35.2188 35.1823C35.8363 36.3632 36.118 36.9482 36.0963 36.9482C34.3196 37.544 32.9438 37.8365 32.0013 37.8365C29.3796 37.8365 26.8771 36.8073 25.0355 34.9548C23.9153 33.8381 23.0826 32.4664 22.6088 30.9573H21.168V26.0282H22.3488C22.7066 24.2867 23.5291 22.6746 24.7291 21.3629C25.9291 20.0512 27.4618 19.0888 29.1646 18.5778C30.8674 18.0669 32.6768 18.0264 34.4007 18.4608C36.1247 18.8951 37.6989 19.7881 38.9563 21.0448C40.3215 22.4047 41.2528 24.1389 41.6321 26.0282H42.8346V30.9573H42.7696L38.913 34.4998L33.1713 33.8498V32.0407H38.4038L39.2813 30.9898ZM29.0438 27.7507C29.3688 27.7507 29.683 27.8807 29.9105 28.119C30.1391 28.3495 30.2674 28.661 30.2674 28.9857C30.2674 29.3103 30.1391 29.6218 29.9105 29.8523C29.683 30.0798 29.3688 30.2098 29.0438 30.2098C28.3613 30.2098 27.8088 29.6682 27.8088 28.9857C27.8088 28.3032 28.3613 27.7507 29.0438 27.7507ZM34.948 27.7507C35.6305 27.7507 36.1721 28.3032 36.1721 28.9857C36.1721 29.6682 35.6305 30.2098 34.948 30.2098C34.2655 30.2098 33.713 29.6682 33.713 28.9857C33.713 28.6581 33.8431 28.344 34.0747 28.1124C34.3063 27.8808 34.6204 27.7507 34.948 27.7507Z" fill="#0079E9"/>
</svg>
