<svg width="64" height="56" viewBox="0 0 64 56" fill="none" xmlns="http://www.w3.org/2000/svg">
<rect width="64" height="56" rx="5" fill="#0079E9" fill-opacity="0.1"/>
<path d="M28.7143 21.6C28.7143 21.1757 28.8874 20.7687 29.1955 20.4686C29.5036 20.1686 29.9214 20 30.3571 20C30.7929 20 31.2107 20.1686 31.5188 20.4686C31.8269 20.7687 32 21.1757 32 21.6V28.752L33.9879 28.96L42.1036 32.464C42.9743 32.848 43.5 33.696 43.5 34.624V41.6C43.4507 42.912 42.3829 43.952 41.0357 44H30.3571C29.7329 44 29.1414 43.76 28.7143 43.312L20.6643 36.592L21.88 35.36C22.1921 35.024 22.6357 34.848 23.0957 34.848H23.4571L28.7143 37.6V21.6ZM30.3571 15.2C32.1 15.2 33.7715 15.8743 35.0038 17.0745C36.2362 18.2747 36.9286 19.9026 36.9286 21.6C36.9286 24 35.6143 26.032 33.6429 27.136V25.184C34.645 24.304 35.2857 23.024 35.2857 21.6C35.2857 20.327 34.7665 19.1061 33.8422 18.2059C32.9179 17.3057 31.6643 16.8 30.3571 16.8C29.05 16.8 27.7964 17.3057 26.8721 18.2059C25.9478 19.1061 25.4286 20.327 25.4286 21.6C25.4286 23.024 26.0693 24.304 27.0714 25.184V27.136C25.1 26.032 23.7857 24 23.7857 21.6C23.7857 19.9026 24.4781 18.2747 25.7104 17.0745C26.9428 15.8743 28.6143 15.2 30.3571 15.2ZM30.3571 12C32.9714 12 35.4786 13.0114 37.3272 14.8118C39.1758 16.6121 40.2143 19.0539 40.2143 21.6C40.2143 24.32 39.0479 26.768 37.1914 28.528L35.5486 27.808C36.4926 27.0555 37.2534 26.1083 37.7761 25.0348C38.2989 23.9612 38.5705 22.7881 38.5714 21.6C38.5714 19.4783 37.706 17.4434 36.1655 15.9431C34.625 14.4429 32.5357 13.6 30.3571 13.6C28.1786 13.6 26.0892 14.4429 24.5488 15.9431C23.0083 17.4434 22.1429 19.4783 22.1429 21.6C22.1429 24.88 24.1636 27.696 27.0714 28.928V30.656C23.2436 29.328 20.5 25.776 20.5 21.6C20.5 19.0539 21.5385 16.6121 23.3871 14.8118C25.2357 13.0114 27.7429 12 30.3571 12Z" fill="#0079E9"/>
</svg>
